<?xml version="1.0" encoding="UTF-8" standalone="no"?>
<!DOCTYPE svg PUBLIC "-//W3C//DTD SVG 1.1//EN"
 "http://www.w3.org/Graphics/SVG/1.1/DTD/svg11.dtd">
<!-- Generated by graphviz version 2.38.0 (20140413.2041)
 -->
<!-- Title: G Pages: 1 -->
<svg width="1092pt" height="548pt"
 viewBox="0.00 0.00 1091.50 548.00" xmlns="http://www.w3.org/2000/svg" xmlns:xlink="http://www.w3.org/1999/xlink">
<g id="graph0" class="graph" transform="scale(1 1) rotate(0) translate(4 544)">
<title>G</title>
<polygon fill="white" stroke="none" points="-4,4 -4,-544 1087.5,-544 1087.5,4 -4,4"/>
<!-- SPOI -->
<g id="node1" class="node"><title>SPOI</title>
<text text-anchor="middle" x="402" y="-14.3" font-family="Bitstream Vera Sans" font-size="14.00">Smart POI RDF</text>
</g>
<!-- OSM -->
<g id="node2" class="node"><title>OSM</title>
<text text-anchor="middle" x="59" y="-87.5" font-family="Bitstream Vera Sans" font-size="10.00">OpenStreetMap</text>
</g>
<!-- OSM&#45;&gt;SPOI -->
<g id="edge10" class="edge"><title>OSM&#45;&gt;SPOI</title>
<path fill="none" stroke="black" d="M105.239,-74.7601C108.868,-73.7801 112.486,-72.847 116,-72 188.477,-54.5291 272.478,-39.5821 330.607,-30.0586"/>
<polygon fill="black" stroke="black" points="340.789,-28.4025 331.641,-34.4496 335.854,-29.2052 330.919,-30.0079 330.919,-30.0079 330.919,-30.0079 335.854,-29.2052 330.196,-25.5663 340.789,-28.4025 340.789,-28.4025"/>
</g>
<!-- GN -->
<g id="node3" class="node"><title>GN</title>
<text text-anchor="middle" x="170" y="-87.5" font-family="Bitstream Vera Sans" font-size="10.00">GeoNames.org</text>
</g>
<!-- GN&#45;&gt;SPOI -->
<g id="edge16" class="edge"><title>GN&#45;&gt;SPOI</title>
<path fill="none" stroke="black" d="M214.51,-74.643C217.381,-73.7418 220.23,-72.8543 223,-72 259.363,-60.7864 300.023,-48.7104 333.39,-38.9218"/>
<polygon fill="black" stroke="black" points="343.047,-36.0929 334.715,-43.2228 338.248,-37.4986 333.45,-38.9043 333.45,-38.9043 333.45,-38.9043 338.248,-37.4986 332.185,-34.5857 343.047,-36.0929 343.047,-36.0929"/>
</g>
<!-- C -->
<g id="node4" class="node"><title>C</title>
<text text-anchor="middle" x="288" y="-87.5" font-family="Bitstream Vera Sans" font-size="10.00">Citadel on the Move</text>
</g>
<!-- C&#45;&gt;SPOI -->
<g id="edge22" class="edge"><title>C&#45;&gt;SPOI</title>
<path fill="none" stroke="black" d="M315.888,-71.8761C330.793,-62.7236 349.329,-51.3417 365.382,-41.485"/>
<polygon fill="black" stroke="black" points="374.005,-36.1898 367.838,-45.2572 369.744,-38.8061 365.484,-41.4224 365.484,-41.4224 365.484,-41.4224 369.744,-38.8061 363.129,-37.5877 374.005,-36.1898 374.005,-36.1898"/>
</g>
<!-- NE -->
<g id="node5" class="node"><title>NE</title>
<text text-anchor="middle" x="402" y="-87.5" font-family="Bitstream Vera Sans" font-size="10.00">Natural Earth</text>
</g>
<!-- NE&#45;&gt;SPOI -->
<g id="edge4" class="edge"><title>NE&#45;&gt;SPOI</title>
<path fill="none" stroke="black" d="M402,-71.6966C402,-63.9827 402,-54.7125 402,-46.1124"/>
<polygon fill="black" stroke="black" points="402,-36.1043 406.5,-46.1043 402,-41.1043 402,-46.1043 402,-46.1043 402,-46.1043 402,-41.1043 397.5,-46.1044 402,-36.1043 402,-36.1043"/>
</g>
<!-- OTN -->
<g id="node6" class="node"><title>OTN</title>
<text text-anchor="middle" x="529" y="-87.5" font-family="Bitstream Vera Sans" font-size="10.00">Open Transport Network</text>
</g>
<!-- OTN&#45;&gt;SPOI -->
<g id="edge45" class="edge"><title>OTN&#45;&gt;SPOI</title>
<path fill="none" stroke="black" d="M497.932,-71.8761C481.173,-62.6388 460.294,-51.1308 442.298,-41.2116"/>
<polygon fill="black" stroke="black" points="433.187,-36.1898 444.117,-37.0759 437.566,-38.6033 441.945,-41.0169 441.945,-41.0169 441.945,-41.0169 437.566,-38.6033 439.773,-44.9579 433.187,-36.1898 433.187,-36.1898"/>
</g>
<!-- UWB -->
<g id="node7" class="node"><title>UWB</title>
<text text-anchor="middle" x="703" y="-87.5" font-family="Bitstream Vera Sans" font-size="10.00">UWB Experimental Ontologies</text>
</g>
<!-- UWB&#45;&gt;SPOI -->
<g id="edge26" class="edge"><title>UWB&#45;&gt;SPOI</title>
<path fill="none" stroke="black" d="M629.752,-71.9656C582.151,-60.8955 520.404,-46.5358 473.213,-35.5612"/>
<polygon fill="black" stroke="black" points="463.375,-33.2732 474.134,-31.1554 468.245,-34.4058 473.115,-35.5384 473.115,-35.5384 473.115,-35.5384 468.245,-34.4058 472.095,-39.9214 463.375,-33.2732 463.375,-33.2732"/>
</g>
<!-- Local -->
<g id="node8" class="node"><title>Local</title>
<text text-anchor="middle" x="844" y="-87.5" font-family="Bitstream Vera Sans" font-size="10.00">Local data</text>
</g>
<!-- Local&#45;&gt;SPOI -->
<g id="edge33" class="edge"><title>Local&#45;&gt;SPOI</title>
<path fill="none" stroke="black" d="M810.884,-77.3987C804.35,-75.3883 797.503,-73.4739 791,-72 681.58,-47.1982 552.041,-32.3786 473.497,-24.9585"/>
<polygon fill="black" stroke="black" points="463.232,-24.0035 473.606,-20.4493 468.21,-24.4667 473.189,-24.9299 473.189,-24.9299 473.189,-24.9299 468.21,-24.4667 472.772,-29.4106 463.232,-24.0035 463.232,-24.0035"/>
</g>
<!-- OSM_down -->
<g id="node9" class="node"><title>OSM_down</title>
<text text-anchor="start" x="8" y="-457.1" font-family="Bitstream Vera Sans" font-size="8.00">OSM</text>
<text text-anchor="start" x="8" y="-448.1" font-family="Bitstream Vera Sans" font-size="8.00">(downloaded and</text>
<text text-anchor="start" x="8" y="-439.1" font-family="Bitstream Vera Sans" font-size="8.00">unpacked by script)</text>
</g>
<!-- OSM_proc1 -->
<g id="node10" class="node"><title>OSM_proc1</title>
<text text-anchor="start" x="25.5" y="-380.6" font-family="Bitstream Vera Sans" font-size="8.00">osmconvert</text>
<text text-anchor="start" x="25.5" y="-371.6" font-family="Bitstream Vera Sans" font-size="8.00">osmfilter</text>
</g>
<!-- OSM_down&#45;&gt;OSM_proc1 -->
<g id="edge5" class="edge"><title>OSM_down&#45;&gt;OSM_proc1</title>
<path fill="none" stroke="black" d="M50.2472,-431.697C50.3574,-423.983 50.4898,-414.712 50.6127,-406.112"/>
<polygon fill="black" stroke="black" points="50.7557,-396.104 55.1123,-406.168 50.6842,-401.104 50.6127,-406.103 50.6127,-406.103 50.6127,-406.103 50.6842,-401.104 46.1132,-406.039 50.7557,-396.104 50.7557,-396.104"/>
</g>
<!-- OSM_harm1 -->
<g id="node11" class="node"><title>OSM_harm1</title>
<text text-anchor="start" x="13.5" y="-308.6" font-family="Bitstream Vera Sans" font-size="8.00">format conversion</text>
<text text-anchor="start" x="13.5" y="-299.6" font-family="Bitstream Vera Sans" font-size="8.00">and filtering</text>
</g>
<!-- OSM_proc1&#45;&gt;OSM_harm1 -->
<g id="edge6" class="edge"><title>OSM_proc1&#45;&gt;OSM_harm1</title>
<path fill="none" stroke="black" d="M51.4944,-359.697C51.7148,-351.983 51.9796,-342.712 52.2254,-334.112"/>
<polygon fill="black" stroke="black" points="52.5113,-324.104 56.7238,-334.229 52.3685,-329.102 52.2256,-334.1 52.2256,-334.1 52.2256,-334.1 52.3685,-329.102 47.7274,-333.972 52.5113,-324.104 52.5113,-324.104"/>
</g>
<!-- OSM_proc2 -->
<g id="node12" class="node"><title>OSM_proc2</title>
<text text-anchor="start" x="20.5" y="-236.6" font-family="Bitstream Vera Sans" font-size="8.00">XSLT template</text>
<text text-anchor="start" x="20.5" y="-227.6" font-family="Bitstream Vera Sans" font-size="8.00">XSLT processor</text>
</g>
<!-- OSM_harm1&#45;&gt;OSM_proc2 -->
<g id="edge7" class="edge"><title>OSM_harm1&#45;&gt;OSM_proc2</title>
<path fill="none" stroke="black" d="M53.2472,-287.697C53.3574,-279.983 53.4898,-270.712 53.6127,-262.112"/>
<polygon fill="black" stroke="black" points="53.7557,-252.104 58.1123,-262.168 53.6842,-257.104 53.6127,-262.103 53.6127,-262.103 53.6127,-262.103 53.6842,-257.104 49.1132,-262.039 53.7557,-252.104 53.7557,-252.104"/>
</g>
<!-- OSM_harm2 -->
<g id="node13" class="node"><title>OSM_harm2</title>
<text text-anchor="start" x="23" y="-164.6" font-family="Bitstream Vera Sans" font-size="8.00">data model</text>
<text text-anchor="start" x="23" y="-155.6" font-family="Bitstream Vera Sans" font-size="8.00">transformation</text>
</g>
<!-- OSM_proc2&#45;&gt;OSM_harm2 -->
<g id="edge8" class="edge"><title>OSM_proc2&#45;&gt;OSM_harm2</title>
<path fill="none" stroke="black" d="M54.2472,-215.697C54.3574,-207.983 54.4898,-198.712 54.6127,-190.112"/>
<polygon fill="black" stroke="black" points="54.7557,-180.104 59.1123,-190.168 54.6842,-185.104 54.6127,-190.103 54.6127,-190.103 54.6127,-190.103 54.6842,-185.104 50.1132,-190.039 54.7557,-180.104 54.7557,-180.104"/>
</g>
<!-- OSM_harm2&#45;&gt;OSM -->
<g id="edge9" class="edge"><title>OSM_harm2&#45;&gt;OSM</title>
<path fill="none" stroke="black" d="M55.9888,-143.697C56.4296,-135.983 56.9593,-126.712 57.4507,-118.112"/>
<polygon fill="black" stroke="black" points="58.0226,-108.104 61.9447,-118.345 57.7373,-113.096 57.452,-118.088 57.452,-118.088 57.452,-118.088 57.7373,-113.096 52.9593,-117.831 58.0226,-108.104 58.0226,-108.104"/>
</g>
<!-- GN_down -->
<g id="node14" class="node"><title>GN_down</title>
<text text-anchor="start" x="126" y="-457.1" font-family="Bitstream Vera Sans" font-size="8.00">TXT</text>
<text text-anchor="start" x="126" y="-448.1" font-family="Bitstream Vera Sans" font-size="8.00">(downloaded and</text>
<text text-anchor="start" x="126" y="-439.1" font-family="Bitstream Vera Sans" font-size="8.00">unpacked by script)</text>
</g>
<!-- GN_proc1 -->
<g id="node15" class="node"><title>GN_proc1</title>
<text text-anchor="middle" x="168" y="-376.1" font-family="Bitstream Vera Sans" font-size="8.00">script</text>
</g>
<!-- GN_down&#45;&gt;GN_proc1 -->
<g id="edge11" class="edge"><title>GN_down&#45;&gt;GN_proc1</title>
<path fill="none" stroke="black" d="M168,-431.697C168,-423.983 168,-414.712 168,-406.112"/>
<polygon fill="black" stroke="black" points="168,-396.104 172.5,-406.104 168,-401.104 168,-406.104 168,-406.104 168,-406.104 168,-401.104 163.5,-406.104 168,-396.104 168,-396.104"/>
</g>
<!-- GN_harm1 -->
<g id="node16" class="node"><title>GN_harm1</title>
<text text-anchor="middle" x="168" y="-304.1" font-family="Bitstream Vera Sans" font-size="8.00">conversion to XML</text>
</g>
<!-- GN_proc1&#45;&gt;GN_harm1 -->
<g id="edge12" class="edge"><title>GN_proc1&#45;&gt;GN_harm1</title>
<path fill="none" stroke="black" d="M168,-359.697C168,-351.983 168,-342.712 168,-334.112"/>
<polygon fill="black" stroke="black" points="168,-324.104 172.5,-334.104 168,-329.104 168,-334.104 168,-334.104 168,-334.104 168,-329.104 163.5,-334.104 168,-324.104 168,-324.104"/>
</g>
<!-- GN_proc2 -->
<g id="node17" class="node"><title>GN_proc2</title>
<text text-anchor="start" x="134.5" y="-236.6" font-family="Bitstream Vera Sans" font-size="8.00">XSLT template</text>
<text text-anchor="start" x="134.5" y="-227.6" font-family="Bitstream Vera Sans" font-size="8.00">XSLT processor</text>
</g>
<!-- GN_harm1&#45;&gt;GN_proc2 -->
<g id="edge13" class="edge"><title>GN_harm1&#45;&gt;GN_proc2</title>
<path fill="none" stroke="black" d="M168,-287.697C168,-279.983 168,-270.712 168,-262.112"/>
<polygon fill="black" stroke="black" points="168,-252.104 172.5,-262.104 168,-257.104 168,-262.104 168,-262.104 168,-262.104 168,-257.104 163.5,-262.104 168,-252.104 168,-252.104"/>
</g>
<!-- GN_harm2 -->
<g id="node18" class="node"><title>GN_harm2</title>
<text text-anchor="start" x="137" y="-169.1" font-family="Bitstream Vera Sans" font-size="8.00">filtering,</text>
<text text-anchor="start" x="137" y="-160.1" font-family="Bitstream Vera Sans" font-size="8.00">data model</text>
<text text-anchor="start" x="137" y="-151.1" font-family="Bitstream Vera Sans" font-size="8.00">transformation</text>
</g>
<!-- GN_proc2&#45;&gt;GN_harm2 -->
<g id="edge14" class="edge"><title>GN_proc2&#45;&gt;GN_harm2</title>
<path fill="none" stroke="black" d="M168.247,-215.697C168.357,-207.983 168.49,-198.712 168.613,-190.112"/>
<polygon fill="black" stroke="black" points="168.756,-180.104 173.112,-190.168 168.684,-185.104 168.613,-190.103 168.613,-190.103 168.613,-190.103 168.684,-185.104 164.113,-190.039 168.756,-180.104 168.756,-180.104"/>
</g>
<!-- GN_harm2&#45;&gt;GN -->
<g id="edge15" class="edge"><title>GN_harm2&#45;&gt;GN</title>
<path fill="none" stroke="black" d="M169.247,-143.697C169.357,-135.983 169.49,-126.712 169.613,-118.112"/>
<polygon fill="black" stroke="black" points="169.756,-108.104 174.112,-118.168 169.684,-113.104 169.613,-118.103 169.613,-118.103 169.613,-118.103 169.684,-113.104 165.113,-118.039 169.756,-108.104 169.756,-108.104"/>
</g>
<!-- C_down -->
<g id="node19" class="node"><title>C_down</title>
<text text-anchor="start" x="244" y="-457.1" font-family="Bitstream Vera Sans" font-size="8.00">JSON</text>
<text text-anchor="start" x="244" y="-448.1" font-family="Bitstream Vera Sans" font-size="8.00">(downloaded and</text>
<text text-anchor="start" x="244" y="-439.1" font-family="Bitstream Vera Sans" font-size="8.00">unpacked by script)</text>
</g>
<!-- C_proc1 -->
<g id="node20" class="node"><title>C_proc1</title>
<text text-anchor="middle" x="283" y="-376.1" font-family="Bitstream Vera Sans" font-size="8.00">script</text>
</g>
<!-- C_down&#45;&gt;C_proc1 -->
<g id="edge17" class="edge"><title>C_down&#45;&gt;C_proc1</title>
<path fill="none" stroke="black" d="M285.258,-431.697C284.928,-423.983 284.531,-414.712 284.162,-406.112"/>
<polygon fill="black" stroke="black" points="283.733,-396.104 288.657,-405.902 283.947,-401.1 284.161,-406.095 284.161,-406.095 284.161,-406.095 283.947,-401.1 279.665,-406.288 283.733,-396.104 283.733,-396.104"/>
</g>
<!-- C_harm1 -->
<g id="node21" class="node"><title>C_harm1</title>
<text text-anchor="start" x="241" y="-308.6" font-family="Bitstream Vera Sans" font-size="8.00">conversion to XML</text>
<text text-anchor="start" x="241" y="-299.6" font-family="Bitstream Vera Sans" font-size="8.00">filtering</text>
</g>
<!-- C_proc1&#45;&gt;C_harm1 -->
<g id="edge18" class="edge"><title>C_proc1&#45;&gt;C_harm1</title>
<path fill="none" stroke="black" d="M282.258,-359.697C281.928,-351.983 281.531,-342.712 281.162,-334.112"/>
<polygon fill="black" stroke="black" points="280.733,-324.104 285.657,-333.902 280.947,-329.1 281.161,-334.095 281.161,-334.095 281.161,-334.095 280.947,-329.1 276.665,-334.288 280.733,-324.104 280.733,-324.104"/>
</g>
<!-- C_proc2 -->
<g id="node22" class="node"><title>C_proc2</title>
<text text-anchor="start" x="248.5" y="-236.6" font-family="Bitstream Vera Sans" font-size="8.00">XSLT template</text>
<text text-anchor="start" x="248.5" y="-227.6" font-family="Bitstream Vera Sans" font-size="8.00">XSLT processor</text>
</g>
<!-- C_harm1&#45;&gt;C_proc2 -->
<g id="edge19" class="edge"><title>C_harm1&#45;&gt;C_proc2</title>
<path fill="none" stroke="black" d="M280.494,-287.697C280.715,-279.983 280.98,-270.712 281.225,-262.112"/>
<polygon fill="black" stroke="black" points="281.511,-252.104 285.724,-262.229 281.368,-257.102 281.226,-262.1 281.226,-262.1 281.226,-262.1 281.368,-257.102 276.727,-261.972 281.511,-252.104 281.511,-252.104"/>
</g>
<!-- C_harm2 -->
<g id="node23" class="node"><title>C_harm2</title>
<text text-anchor="start" x="254" y="-164.6" font-family="Bitstream Vera Sans" font-size="8.00">data model</text>
<text text-anchor="start" x="254" y="-155.6" font-family="Bitstream Vera Sans" font-size="8.00">transformation</text>
</g>
<!-- C_proc2&#45;&gt;C_harm2 -->
<g id="edge20" class="edge"><title>C_proc2&#45;&gt;C_harm2</title>
<path fill="none" stroke="black" d="M282.989,-215.697C283.43,-207.983 283.959,-198.712 284.451,-190.112"/>
<polygon fill="black" stroke="black" points="285.023,-180.104 288.945,-190.345 284.737,-185.096 284.452,-190.088 284.452,-190.088 284.452,-190.088 284.737,-185.096 279.959,-189.831 285.023,-180.104 285.023,-180.104"/>
</g>
<!-- C_harm2&#45;&gt;C -->
<g id="edge21" class="edge"><title>C_harm2&#45;&gt;C</title>
<path fill="none" stroke="black" d="M286.494,-143.697C286.715,-135.983 286.98,-126.712 287.225,-118.112"/>
<polygon fill="black" stroke="black" points="287.511,-108.104 291.724,-118.229 287.368,-113.102 287.226,-118.1 287.226,-118.1 287.226,-118.1 287.368,-113.102 282.727,-117.972 287.511,-108.104 287.511,-108.104"/>
</g>
<!-- NE_down -->
<g id="node24" class="node"><title>NE_down</title>
<text text-anchor="start" x="353" y="-308.6" font-family="Bitstream Vera Sans" font-size="8.00">KML</text>
<text text-anchor="start" x="353" y="-299.6" font-family="Bitstream Vera Sans" font-size="8.00">(one&#45;time downloaded)</text>
</g>
<!-- NE_proc -->
<g id="node25" class="node"><title>NE_proc</title>
<text text-anchor="start" x="368.5" y="-236.6" font-family="Bitstream Vera Sans" font-size="8.00">XSLT template</text>
<text text-anchor="start" x="368.5" y="-227.6" font-family="Bitstream Vera Sans" font-size="8.00">XSLT processor</text>
</g>
<!-- NE_down&#45;&gt;NE_proc -->
<g id="edge1" class="edge"><title>NE_down&#45;&gt;NE_proc</title>
<path fill="none" stroke="black" d="M402,-287.697C402,-279.983 402,-270.712 402,-262.112"/>
<polygon fill="black" stroke="black" points="402,-252.104 406.5,-262.104 402,-257.104 402,-262.104 402,-262.104 402,-262.104 402,-257.104 397.5,-262.104 402,-252.104 402,-252.104"/>
</g>
<!-- NE_harm -->
<g id="node26" class="node"><title>NE_harm</title>
<text text-anchor="start" x="370" y="-169.1" font-family="Bitstream Vera Sans" font-size="8.00">filtering,</text>
<text text-anchor="start" x="370" y="-160.1" font-family="Bitstream Vera Sans" font-size="8.00">data model</text>
<text text-anchor="start" x="370" y="-151.1" font-family="Bitstream Vera Sans" font-size="8.00">transformation</text>
</g>
<!-- NE_proc&#45;&gt;NE_harm -->
<g id="edge2" class="edge"><title>NE_proc&#45;&gt;NE_harm</title>
<path fill="none" stroke="black" d="M402,-215.697C402,-207.983 402,-198.712 402,-190.112"/>
<polygon fill="black" stroke="black" points="402,-180.104 406.5,-190.104 402,-185.104 402,-190.104 402,-190.104 402,-190.104 402,-185.104 397.5,-190.104 402,-180.104 402,-180.104"/>
</g>
<!-- NE_harm&#45;&gt;NE -->
<g id="edge3" class="edge"><title>NE_harm&#45;&gt;NE</title>
<path fill="none" stroke="black" d="M402,-143.697C402,-135.983 402,-126.712 402,-118.112"/>
<polygon fill="black" stroke="black" points="402,-108.104 406.5,-118.104 402,-113.104 402,-118.104 402,-118.104 402,-118.104 402,-113.104 397.5,-118.104 402,-108.104 402,-108.104"/>
</g>
<!-- UWB_down -->
<g id="node27" class="node"><title>UWB_down</title>
<text text-anchor="start" x="727.5" y="-308.6" font-family="Bitstream Vera Sans" font-size="8.00">OWL</text>
<text text-anchor="start" x="727.5" y="-299.6" font-family="Bitstream Vera Sans" font-size="8.00">(local files)</text>
</g>
<!-- UWB_proc -->
<g id="node28" class="node"><title>UWB_proc</title>
<text text-anchor="start" x="697.5" y="-236.6" font-family="Bitstream Vera Sans" font-size="8.00">XSLT template</text>
<text text-anchor="start" x="697.5" y="-227.6" font-family="Bitstream Vera Sans" font-size="8.00">XSLT processor</text>
</g>
<!-- UWB_down&#45;&gt;UWB_proc -->
<g id="edge23" class="edge"><title>UWB_down&#45;&gt;UWB_proc</title>
<path fill="none" stroke="black" d="M746.056,-287.697C743.828,-279.898 741.145,-270.509 738.665,-261.829"/>
<polygon fill="black" stroke="black" points="735.887,-252.104 742.961,-260.483 737.261,-256.912 738.634,-261.72 738.634,-261.72 738.634,-261.72 737.261,-256.912 734.307,-262.956 735.887,-252.104 735.887,-252.104"/>
</g>
<!-- UWB_harm -->
<g id="node29" class="node"><title>UWB_harm</title>
<text text-anchor="start" x="696" y="-169.1" font-family="Bitstream Vera Sans" font-size="8.00">filtering,</text>
<text text-anchor="start" x="696" y="-160.1" font-family="Bitstream Vera Sans" font-size="8.00">data model</text>
<text text-anchor="start" x="696" y="-151.1" font-family="Bitstream Vera Sans" font-size="8.00">transformation</text>
</g>
<!-- UWB_proc&#45;&gt;UWB_harm -->
<g id="edge24" class="edge"><title>UWB_proc&#45;&gt;UWB_harm</title>
<path fill="none" stroke="black" d="M730.258,-215.697C729.928,-207.983 729.531,-198.712 729.162,-190.112"/>
<polygon fill="black" stroke="black" points="728.733,-180.104 733.657,-189.902 728.947,-185.1 729.161,-190.095 729.161,-190.095 729.161,-190.095 728.947,-185.1 724.665,-190.288 728.733,-180.104 728.733,-180.104"/>
</g>
<!-- UWB_harm&#45;&gt;UWB -->
<g id="edge25" class="edge"><title>UWB_harm&#45;&gt;UWB</title>
<path fill="none" stroke="black" d="M721.82,-143.697C719.005,-135.813 715.609,-126.304 712.481,-117.546"/>
<polygon fill="black" stroke="black" points="709.109,-108.104 716.71,-116.008 710.79,-112.813 712.472,-117.522 712.472,-117.522 712.472,-117.522 710.79,-112.813 708.234,-119.035 709.109,-108.104 709.109,-108.104"/>
</g>
<!-- L_down1a -->
<g id="node30" class="node"><title>L_down1a</title>
<text text-anchor="start" x="915.5" y="-524.6" font-family="Bitstream Vera Sans" font-size="8.00">common text (Sicily;</text>
<text text-anchor="start" x="915.5" y="-515.6" font-family="Bitstream Vera Sans" font-size="8.00">one&#45;time downloaded)</text>
</g>
<!-- L_harm1a -->
<g id="node33" class="node"><title>L_harm1a</title>
<text text-anchor="start" x="928.5" y="-452.6" font-family="Bitstream Vera Sans" font-size="8.00">transcription to</text>
<text text-anchor="start" x="928.5" y="-443.6" font-family="Bitstream Vera Sans" font-size="8.00">a structured file</text>
</g>
<!-- L_down1a&#45;&gt;L_harm1a -->
<g id="edge27" class="edge"><title>L_down1a&#45;&gt;L_harm1a</title>
<path fill="none" stroke="black" d="M963,-503.697C963,-495.983 963,-486.712 963,-478.112"/>
<polygon fill="black" stroke="black" points="963,-468.104 967.5,-478.104 963,-473.104 963,-478.104 963,-478.104 963,-478.104 963,-473.104 958.5,-478.104 963,-468.104 963,-468.104"/>
</g>
<!-- L_down1b -->
<g id="node31" class="node"><title>L_down1b</title>
<text text-anchor="start" x="980.5" y="-385.1" font-family="Bitstream Vera Sans" font-size="8.00">common text</text>
<text text-anchor="start" x="980.5" y="-376.1" font-family="Bitstream Vera Sans" font-size="8.00">(travel agency;</text>
<text text-anchor="start" x="980.5" y="-367.1" font-family="Bitstream Vera Sans" font-size="8.00">one&#45;time downloaded)</text>
</g>
<!-- L_harm1b -->
<g id="node34" class="node"><title>L_harm1b</title>
<text text-anchor="start" x="993.5" y="-313.1" font-family="Bitstream Vera Sans" font-size="8.00">transcription to</text>
<text text-anchor="start" x="993.5" y="-304.1" font-family="Bitstream Vera Sans" font-size="8.00">a structured file</text>
<text text-anchor="start" x="993.5" y="-295.1" font-family="Bitstream Vera Sans" font-size="8.00">(CSV table)</text>
</g>
<!-- L_down1b&#45;&gt;L_harm1b -->
<g id="edge34" class="edge"><title>L_down1b&#45;&gt;L_harm1b</title>
<path fill="none" stroke="black" d="M1028,-359.697C1028,-351.983 1028,-342.712 1028,-334.112"/>
<polygon fill="black" stroke="black" points="1028,-324.104 1032.5,-334.104 1028,-329.104 1028,-334.104 1028,-334.104 1028,-334.104 1028,-329.104 1023.5,-334.104 1028,-324.104 1028,-324.104"/>
</g>
<!-- L_down2 -->
<g id="node32" class="node"><title>L_down2</title>
<text text-anchor="start" x="778" y="-457.1" font-family="Bitstream Vera Sans" font-size="8.00">table (Posumavi, Zemgale;</text>
<text text-anchor="start" x="778" y="-448.1" font-family="Bitstream Vera Sans" font-size="8.00">one&#45;time downloaded,</text>
<text text-anchor="start" x="778" y="-439.1" font-family="Bitstream Vera Sans" font-size="8.00">manual pre&#45;processing)</text>
</g>
<!-- L_proc2 -->
<g id="node35" class="node"><title>L_proc2</title>
<text text-anchor="start" x="840.5" y="-385.1" font-family="Bitstream Vera Sans" font-size="8.00">web service</text>
<text text-anchor="start" x="840.5" y="-376.1" font-family="Bitstream Vera Sans" font-size="8.00">(Zamzar, Google</text>
<text text-anchor="start" x="840.5" y="-367.1" font-family="Bitstream Vera Sans" font-size="8.00">Documents)</text>
</g>
<!-- L_down2&#45;&gt;L_proc2 -->
<g id="edge41" class="edge"><title>L_down2&#45;&gt;L_proc2</title>
<path fill="none" stroke="black" d="M846.135,-431.697C850.852,-423.644 856.562,-413.894 861.782,-404.982"/>
<polygon fill="black" stroke="black" points="866.982,-396.104 865.811,-407.008 864.455,-400.419 861.928,-404.733 861.928,-404.733 861.928,-404.733 864.455,-400.419 858.045,-402.459 866.982,-396.104 866.982,-396.104"/>
</g>
<!-- L_harm1a&#45;&gt;L_proc2 -->
<g id="edge28" class="edge"><title>L_harm1a&#45;&gt;L_proc2</title>
<path fill="none" stroke="black" d="M941.742,-431.697C930.911,-422.881 917.582,-412.032 905.84,-402.474"/>
<polygon fill="black" stroke="black" points="898.014,-396.104 908.61,-398.927 901.892,-399.261 905.77,-402.417 905.77,-402.417 905.77,-402.417 901.892,-399.261 902.929,-405.907 898.014,-396.104 898.014,-396.104"/>
</g>
<!-- L_proc3c -->
<g id="node41" class="node"><title>L_proc3c</title>
<text text-anchor="start" x="1002.5" y="-232.1" font-family="Bitstream Vera Sans" font-size="8.00">BASH script</text>
</g>
<!-- L_harm1b&#45;&gt;L_proc3c -->
<g id="edge35" class="edge"><title>L_harm1b&#45;&gt;L_proc3c</title>
<path fill="none" stroke="black" d="M1028,-287.697C1028,-279.983 1028,-270.712 1028,-262.112"/>
<polygon fill="black" stroke="black" points="1028,-252.104 1032.5,-262.104 1028,-257.104 1028,-262.104 1028,-262.104 1028,-262.104 1028,-257.104 1023.5,-262.104 1028,-252.104 1028,-252.104"/>
</g>
<!-- L_harm2 -->
<g id="node36" class="node"><title>L_harm2</title>
<text text-anchor="middle" x="877" y="-304.1" font-family="Bitstream Vera Sans" font-size="8.00">conversion to XML</text>
</g>
<!-- L_proc2&#45;&gt;L_harm2 -->
<g id="edge29" class="edge"><title>L_proc2&#45;&gt;L_harm2</title>
<path fill="none" stroke="black" d="M877,-359.697C877,-351.983 877,-342.712 877,-334.112"/>
<polygon fill="black" stroke="black" points="877,-324.104 881.5,-334.104 877,-329.104 877,-334.104 877,-334.104 877,-334.104 877,-329.104 872.5,-334.104 877,-324.104 877,-324.104"/>
</g>
<!-- L_proc3a -->
<g id="node37" class="node"><title>L_proc3a</title>
<text text-anchor="start" x="798.5" y="-236.6" font-family="Bitstream Vera Sans" font-size="8.00">XSLT template</text>
<text text-anchor="start" x="798.5" y="-227.6" font-family="Bitstream Vera Sans" font-size="8.00">XSLT processor</text>
</g>
<!-- L_harm2&#45;&gt;L_proc3a -->
<g id="edge30" class="edge"><title>L_harm2&#45;&gt;L_proc3a</title>
<path fill="none" stroke="black" d="M865.876,-287.697C860.645,-279.559 854.3,-269.689 848.522,-260.701"/>
<polygon fill="black" stroke="black" points="842.996,-252.104 852.189,-258.083 845.699,-256.31 848.403,-260.516 848.403,-260.516 848.403,-260.516 845.699,-256.31 844.618,-262.95 842.996,-252.104 842.996,-252.104"/>
</g>
<!-- L_proc3b -->
<g id="node39" class="node"><title>L_proc3b</title>
<text text-anchor="start" x="899.5" y="-236.6" font-family="Bitstream Vera Sans" font-size="8.00">XSLT template</text>
<text text-anchor="start" x="899.5" y="-227.6" font-family="Bitstream Vera Sans" font-size="8.00">XSLT processor</text>
</g>
<!-- L_harm2&#45;&gt;L_proc3b -->
<g id="edge38" class="edge"><title>L_harm2&#45;&gt;L_proc3b</title>
<path fill="none" stroke="black" d="M890.843,-287.697C897.489,-279.389 905.578,-269.277 912.887,-260.141"/>
<polygon fill="black" stroke="black" points="919.317,-252.104 916.583,-262.724 916.193,-256.009 913.07,-259.913 913.07,-259.913 913.07,-259.913 916.193,-256.009 909.556,-257.102 919.317,-252.104 919.317,-252.104"/>
</g>
<!-- L_harm3a -->
<g id="node38" class="node"><title>L_harm3a</title>
<text text-anchor="start" x="800" y="-169.1" font-family="Bitstream Vera Sans" font-size="8.00">filtering,</text>
<text text-anchor="start" x="800" y="-160.1" font-family="Bitstream Vera Sans" font-size="8.00">data model</text>
<text text-anchor="start" x="800" y="-151.1" font-family="Bitstream Vera Sans" font-size="8.00">transformation</text>
</g>
<!-- L_proc3a&#45;&gt;L_harm3a -->
<g id="edge31" class="edge"><title>L_proc3a&#45;&gt;L_harm3a</title>
<path fill="none" stroke="black" d="M832,-215.697C832,-207.983 832,-198.712 832,-190.112"/>
<polygon fill="black" stroke="black" points="832,-180.104 836.5,-190.104 832,-185.104 832,-190.104 832,-190.104 832,-190.104 832,-185.104 827.5,-190.104 832,-180.104 832,-180.104"/>
</g>
<!-- L_harm3a&#45;&gt;Local -->
<g id="edge32" class="edge"><title>L_harm3a&#45;&gt;Local</title>
<path fill="none" stroke="black" d="M834.966,-143.697C836.289,-135.983 837.878,-126.712 839.352,-118.112"/>
<polygon fill="black" stroke="black" points="841.068,-108.104 843.813,-118.721 840.223,-113.032 839.378,-117.961 839.378,-117.961 839.378,-117.961 840.223,-113.032 834.943,-117.2 841.068,-108.104 841.068,-108.104"/>
</g>
<!-- L_harm3b -->
<g id="node40" class="node"><title>L_harm3b</title>
<text text-anchor="start" x="898" y="-169.1" font-family="Bitstream Vera Sans" font-size="8.00">filtering,</text>
<text text-anchor="start" x="898" y="-160.1" font-family="Bitstream Vera Sans" font-size="8.00">data model</text>
<text text-anchor="start" x="898" y="-151.1" font-family="Bitstream Vera Sans" font-size="8.00">transformation</text>
</g>
<!-- L_proc3b&#45;&gt;L_harm3b -->
<g id="edge39" class="edge"><title>L_proc3b&#45;&gt;L_harm3b</title>
<path fill="none" stroke="black" d="M932.258,-215.697C931.928,-207.983 931.531,-198.712 931.162,-190.112"/>
<polygon fill="black" stroke="black" points="930.733,-180.104 935.657,-189.902 930.947,-185.1 931.161,-190.095 931.161,-190.095 931.161,-190.095 930.947,-185.1 926.665,-190.288 930.733,-180.104 930.733,-180.104"/>
</g>
<!-- L_harm3b&#45;&gt;Local -->
<g id="edge40" class="edge"><title>L_harm3b&#45;&gt;Local</title>
<path fill="none" stroke="black" d="M908.742,-143.697C897.911,-134.881 884.582,-124.032 872.84,-114.474"/>
<polygon fill="black" stroke="black" points="865.014,-108.104 875.61,-110.927 868.892,-111.261 872.77,-114.417 872.77,-114.417 872.77,-114.417 868.892,-111.261 869.929,-117.907 865.014,-108.104 865.014,-108.104"/>
</g>
<!-- L_harm3c -->
<g id="node42" class="node"><title>L_harm3c</title>
<text text-anchor="start" x="996" y="-169.1" font-family="Bitstream Vera Sans" font-size="8.00">filtering,</text>
<text text-anchor="start" x="996" y="-160.1" font-family="Bitstream Vera Sans" font-size="8.00">data model</text>
<text text-anchor="start" x="996" y="-151.1" font-family="Bitstream Vera Sans" font-size="8.00">transformation</text>
</g>
<!-- L_proc3c&#45;&gt;L_harm3c -->
<g id="edge36" class="edge"><title>L_proc3c&#45;&gt;L_harm3c</title>
<path fill="none" stroke="black" d="M1028,-215.697C1028,-207.983 1028,-198.712 1028,-190.112"/>
<polygon fill="black" stroke="black" points="1028,-180.104 1032.5,-190.104 1028,-185.104 1028,-190.104 1028,-190.104 1028,-190.104 1028,-185.104 1023.5,-190.104 1028,-180.104 1028,-180.104"/>
</g>
<!-- L_harm3c&#45;&gt;Local -->
<g id="edge37" class="edge"><title>L_harm3c&#45;&gt;Local</title>
<path fill="none" stroke="black" d="M987.62,-145.638C957.742,-134.272 917.125,-118.819 886.708,-107.247"/>
<polygon fill="black" stroke="black" points="877.217,-103.637 888.164,-102.987 881.89,-105.415 886.563,-107.193 886.563,-107.193 886.563,-107.193 881.89,-105.415 884.963,-111.399 877.217,-103.637 877.217,-103.637"/>
</g>
<!-- OTN_down1 -->
<g id="node43" class="node"><title>OTN_down1</title>
<text text-anchor="start" x="485.5" y="-308.6" font-family="Bitstream Vera Sans" font-size="8.00">XML (Antwerpen;</text>
<text text-anchor="start" x="485.5" y="-299.6" font-family="Bitstream Vera Sans" font-size="8.00">one&#45;time downloaded)</text>
</g>
<!-- OTN_proc1 -->
<g id="node45" class="node"><title>OTN_proc1</title>
<text text-anchor="start" x="495.5" y="-236.6" font-family="Bitstream Vera Sans" font-size="8.00">XSLT template</text>
<text text-anchor="start" x="495.5" y="-227.6" font-family="Bitstream Vera Sans" font-size="8.00">XSLT processor</text>
</g>
<!-- OTN_down1&#45;&gt;OTN_proc1 -->
<g id="edge42" class="edge"><title>OTN_down1&#45;&gt;OTN_proc1</title>
<path fill="none" stroke="black" d="M532.011,-287.697C531.57,-279.983 531.041,-270.712 530.549,-262.112"/>
<polygon fill="black" stroke="black" points="529.977,-252.104 535.041,-261.831 530.263,-257.096 530.548,-262.088 530.548,-262.088 530.548,-262.088 530.263,-257.096 526.055,-262.345 529.977,-252.104 529.977,-252.104"/>
</g>
<!-- OTN_down2 -->
<g id="node44" class="node"><title>OTN_down2</title>
<text text-anchor="start" x="606.5" y="-452.6" font-family="Bitstream Vera Sans" font-size="8.00">CSV (Issy;</text>
<text text-anchor="start" x="606.5" y="-443.6" font-family="Bitstream Vera Sans" font-size="8.00">one&#45;time downloaded)</text>
</g>
<!-- OTN_proc2 -->
<g id="node47" class="node"><title>OTN_proc2</title>
<text text-anchor="middle" x="654" y="-376.1" font-family="Bitstream Vera Sans" font-size="8.00">web service</text>
</g>
<!-- OTN_down2&#45;&gt;OTN_proc2 -->
<g id="edge46" class="edge"><title>OTN_down2&#45;&gt;OTN_proc2</title>
<path fill="none" stroke="black" d="M654,-431.697C654,-423.983 654,-414.712 654,-406.112"/>
<polygon fill="black" stroke="black" points="654,-396.104 658.5,-406.104 654,-401.104 654,-406.104 654,-406.104 654,-406.104 654,-401.104 649.5,-406.104 654,-396.104 654,-396.104"/>
</g>
<!-- OTN_harm1 -->
<g id="node46" class="node"><title>OTN_harm1</title>
<text text-anchor="start" x="497" y="-169.1" font-family="Bitstream Vera Sans" font-size="8.00">filtering,</text>
<text text-anchor="start" x="497" y="-160.1" font-family="Bitstream Vera Sans" font-size="8.00">data model</text>
<text text-anchor="start" x="497" y="-151.1" font-family="Bitstream Vera Sans" font-size="8.00">transformation</text>
</g>
<!-- OTN_proc1&#45;&gt;OTN_harm1 -->
<g id="edge43" class="edge"><title>OTN_proc1&#45;&gt;OTN_harm1</title>
<path fill="none" stroke="black" d="M529,-215.697C529,-207.983 529,-198.712 529,-190.112"/>
<polygon fill="black" stroke="black" points="529,-180.104 533.5,-190.104 529,-185.104 529,-190.104 529,-190.104 529,-190.104 529,-185.104 524.5,-190.104 529,-180.104 529,-180.104"/>
</g>
<!-- OTN_harm1&#45;&gt;OTN -->
<g id="edge44" class="edge"><title>OTN_harm1&#45;&gt;OTN</title>
<path fill="none" stroke="black" d="M529,-143.697C529,-135.983 529,-126.712 529,-118.112"/>
<polygon fill="black" stroke="black" points="529,-108.104 533.5,-118.104 529,-113.104 529,-118.104 529,-118.104 529,-118.104 529,-113.104 524.5,-118.104 529,-108.104 529,-108.104"/>
</g>
<!-- OTN_harm2 -->
<g id="node48" class="node"><title>OTN_harm2</title>
<text text-anchor="middle" x="654" y="-304.1" font-family="Bitstream Vera Sans" font-size="8.00">conversion to XML</text>
</g>
<!-- OTN_proc2&#45;&gt;OTN_harm2 -->
<g id="edge47" class="edge"><title>OTN_proc2&#45;&gt;OTN_harm2</title>
<path fill="none" stroke="black" d="M654,-359.697C654,-351.983 654,-342.712 654,-334.112"/>
<polygon fill="black" stroke="black" points="654,-324.104 658.5,-334.104 654,-329.104 654,-334.104 654,-334.104 654,-334.104 654,-329.104 649.5,-334.104 654,-324.104 654,-324.104"/>
</g>
<!-- OTN_proc3 -->
<g id="node49" class="node"><title>OTN_proc3</title>
<text text-anchor="start" x="596.5" y="-236.6" font-family="Bitstream Vera Sans" font-size="8.00">XSLT template</text>
<text text-anchor="start" x="596.5" y="-227.6" font-family="Bitstream Vera Sans" font-size="8.00">XSLT processor</text>
</g>
<!-- OTN_harm2&#45;&gt;OTN_proc3 -->
<g id="edge48" class="edge"><title>OTN_harm2&#45;&gt;OTN_proc3</title>
<path fill="none" stroke="black" d="M648.067,-287.697C645.394,-279.898 642.174,-270.509 639.199,-261.829"/>
<polygon fill="black" stroke="black" points="635.864,-252.104 643.364,-260.104 637.486,-256.834 639.108,-261.564 639.108,-261.564 639.108,-261.564 637.486,-256.834 634.851,-263.023 635.864,-252.104 635.864,-252.104"/>
</g>
<!-- OTN_harm3 -->
<g id="node50" class="node"><title>OTN_harm3</title>
<text text-anchor="start" x="596" y="-169.1" font-family="Bitstream Vera Sans" font-size="8.00">filtering,</text>
<text text-anchor="start" x="596" y="-160.1" font-family="Bitstream Vera Sans" font-size="8.00">data model</text>
<text text-anchor="start" x="596" y="-151.1" font-family="Bitstream Vera Sans" font-size="8.00">transformation</text>
</g>
<!-- OTN_proc3&#45;&gt;OTN_harm3 -->
<g id="edge49" class="edge"><title>OTN_proc3&#45;&gt;OTN_harm3</title>
<path fill="none" stroke="black" d="M629.506,-215.697C629.285,-207.983 629.02,-198.712 628.775,-190.112"/>
<polygon fill="black" stroke="black" points="628.489,-180.104 633.273,-189.972 628.632,-185.102 628.774,-190.1 628.774,-190.1 628.774,-190.1 628.632,-185.102 624.276,-190.229 628.489,-180.104 628.489,-180.104"/>
</g>
<!-- OTN_harm3&#45;&gt;OTN -->
<g id="edge50" class="edge"><title>OTN_harm3&#45;&gt;OTN</title>
<path fill="none" stroke="black" d="M603.782,-143.876C591.077,-134.893 575.336,-123.763 561.577,-114.034"/>
<polygon fill="black" stroke="black" points="553.311,-108.19 564.074,-110.289 557.394,-111.076 561.476,-113.963 561.476,-113.963 561.476,-113.963 557.394,-111.076 558.878,-117.637 553.311,-108.19 553.311,-108.19"/>
</g>
</g>
</svg>
