<?xml version="1.0" encoding="UTF-8" standalone="no"?>
<!DOCTYPE svg PUBLIC "-//W3C//DTD SVG 1.1//EN"
 "http://www.w3.org/Graphics/SVG/1.1/DTD/svg11.dtd">
<!-- Generated by graphviz version 2.38.0 (20140413.2041)
 -->
<!-- Title: G Pages: 1 -->
<svg width="705pt" height="581pt"
 viewBox="0.00 0.00 705.17 581.00" xmlns="http://www.w3.org/2000/svg" xmlns:xlink="http://www.w3.org/1999/xlink">
<g id="graph0" class="graph" transform="scale(1 1) rotate(0) translate(4 577)">
<title>G</title>
<polygon fill="white" stroke="none" points="-4,4 -4,-577 701.167,-577 701.167,4 -4,4"/>
<!-- SPOI -->
<g id="node1" class="node"><title>SPOI</title>
<polygon fill="none" stroke="black" points="0,-232.5 0,-572.5 332,-572.5 332,-232.5 0,-232.5"/>
<text text-anchor="middle" x="166" y="-562.1" font-family="Bitstream Vera Sans" font-size="8.00">SPOI</text>
<polyline fill="none" stroke="black" points="0,-555.5 332,-555.5 "/>
<text text-anchor="start" x="8" y="-545.1" font-family="Bitstream Vera Sans" font-size="8.00">+ rdfs:label : xsd:string [1..*]</text>
<text text-anchor="start" x="8" y="-536.1" font-family="Bitstream Vera Sans" font-size="8.00">+ rdfs:comment : xsd:string [0..*]</text>
<text text-anchor="start" x="8" y="-518.1" font-family="Bitstream Vera Sans" font-size="8.00">+ geos:asWKT : WKTLiteral</text>
<text text-anchor="start" x="8" y="-509.1" font-family="Bitstream Vera Sans" font-size="8.00">+ poi:secondaryGeometry : WKTLiteral [0..*]</text>
<text text-anchor="start" x="8" y="-500.1" font-family="Bitstream Vera Sans" font-size="8.00">+ poi:region : xsd:anyURI / xsd:string [0..*]</text>
<text text-anchor="start" x="8" y="-491.1" font-family="Bitstream Vera Sans" font-size="8.00">+ poi:municipality : xsd:anyURI / xsd:string [0..*]</text>
<text text-anchor="start" x="8" y="-473.1" font-family="Bitstream Vera Sans" font-size="8.00">+ poi:category : xsd:string [0..1]</text>
<text text-anchor="start" x="8" y="-464.1" font-family="Bitstream Vera Sans" font-size="8.00">+ poi:categoryOSM : xsd:string [0..1]</text>
<text text-anchor="start" x="8" y="-446.1" font-family="Bitstream Vera Sans" font-size="8.00">+ poi:address : xsd:string [0..1]</text>
<text text-anchor="start" x="8" y="-437.1" font-family="Bitstream Vera Sans" font-size="8.00">+ foaf:mbox : xsd:string [0..*]</text>
<text text-anchor="start" x="8" y="-428.1" font-family="Bitstream Vera Sans" font-size="8.00">+ poi:fax : xsd:string [0..*]</text>
<text text-anchor="start" x="8" y="-419.1" font-family="Bitstream Vera Sans" font-size="8.00">+ foaf:phone : xsd:string [0..*]</text>
<text text-anchor="start" x="8" y="-410.1" font-family="Bitstream Vera Sans" font-size="8.00">+ foaf:homepage : xsd:anyURI [0..*]</text>
<text text-anchor="start" x="8" y="-392.1" font-family="Bitstream Vera Sans" font-size="8.00">+ poi:openingHours : xsd:string [0..*]</text>
<text text-anchor="start" x="8" y="-383.1" font-family="Bitstream Vera Sans" font-size="8.00">+ poi:access : xsd:string [0..*]</text>
<text text-anchor="start" x="8" y="-374.1" font-family="Bitstream Vera Sans" font-size="8.00">+ poi:accessibility : xsd:string [0..*]</text>
<text text-anchor="start" x="8" y="-365.1" font-family="Bitstream Vera Sans" font-size="8.00">+ poi:internetAccess : xsd:string [0..1]</text>
<text text-anchor="start" x="8" y="-347.1" font-family="Bitstream Vera Sans" font-size="8.00">+ poi:photo : xsd:anyURI [0..*]</text>
<text text-anchor="start" x="8" y="-338.1" font-family="Bitstream Vera Sans" font-size="8.00">+ poi:wikidata : xsd:anyURI [0..1]</text>
<text text-anchor="start" x="8" y="-329.1" font-family="Bitstream Vera Sans" font-size="8.00">+ rdfs:seeAlso : xsd:anyURI [0..*]</text>
<text text-anchor="start" x="8" y="-320.1" font-family="Bitstream Vera Sans" font-size="8.00">+ skos:exactMatch : xsd:anyURI [0..*]</text>
<text text-anchor="start" x="8" y="-311.1" font-family="Bitstream Vera Sans" font-size="8.00">+ owl:sameAs : xsd:anyURI [0..*]</text>
<text text-anchor="start" x="8" y="-302.1" font-family="Bitstream Vera Sans" font-size="8.00">+ geos:sfWithin : xsd:anyURI [1..*]</text>
<text text-anchor="start" x="8" y="-284.1" font-family="Bitstream Vera Sans" font-size="8.00">+ dc:identifier : xsd:anyURI</text>
<text text-anchor="start" x="8" y="-275.1" font-family="Bitstream Vera Sans" font-size="8.00">+ dc:publisher : xsd:string &#45; SPOI (http://sdi4apps.eu/spoi)</text>
<text text-anchor="start" x="8" y="-266.1" font-family="Bitstream Vera Sans" font-size="8.00">+ dc:title : xsd:string</text>
<text text-anchor="start" x="8" y="-257.1" font-family="Bitstream Vera Sans" font-size="8.00">+ dc:rights : xsd:anyURI &#45; http://opendatacommons.org/licenses/odbl/1.0/</text>
<text text-anchor="start" x="8" y="-248.1" font-family="Bitstream Vera Sans" font-size="8.00">+ dc:source : xsd:anyURI [1..*]</text>
<text text-anchor="start" x="8" y="-239.1" font-family="Bitstream Vera Sans" font-size="8.00">+ dcterms:created : xsd:date</text>
</g>
<!-- Waze -->
<g id="node2" class="node"><title>Waze</title>
<polygon fill="none" stroke="black" points="422.5,-384.5 422.5,-420.5 563.5,-420.5 563.5,-384.5 422.5,-384.5"/>
<text text-anchor="middle" x="493" y="-409.6" font-family="Bitstream Vera Sans" font-size="8.00">WazeClassification</text>
<polyline fill="none" stroke="black" points="422.5,-402.5 563.5,-402.5 "/>
<text text-anchor="start" x="430.5" y="-391.6" font-family="Bitstream Vera Sans" font-size="8.00">+ skos:prefLabel : xsd:string</text>
</g>
<!-- SPOI&#45;&gt;Waze -->
<g id="edge1" class="edge"><title>SPOI&#45;&gt;Waze</title>
<path fill="none" stroke="black" d="M332.374,-402.5C360.123,-402.5 387.761,-402.5 412.09,-402.5"/>
<polygon fill="black" stroke="black" points="422.305,-402.5 412.305,-407 417.305,-402.5 412.305,-402.5 412.305,-402.5 412.305,-402.5 417.305,-402.5 412.305,-398 422.305,-402.5 422.305,-402.5"/>
<text text-anchor="middle" x="377.25" y="-408.1" font-family="Bitstream Vera Sans" font-size="8.00">poi:categoryWaze</text>
<text text-anchor="middle" x="419.305" y="-405.1" font-family="Bitstream Vera Sans" font-size="8.00">1</text>
<text text-anchor="middle" x="335.374" y="-405.1" font-family="Bitstream Vera Sans" font-size="8.00">1</text>
</g>
<!-- Airport -->
<g id="node3" class="node"><title>Airport</title>
<polygon fill="none" stroke="black" points="316,-107.5 316,-194.5 670,-194.5 670,-107.5 316,-107.5"/>
<text text-anchor="middle" x="493" y="-184.1" font-family="Bitstream Vera Sans" font-size="8.00">SPOI:Airport</text>
<polyline fill="none" stroke="black" points="316,-177.5 670,-177.5 "/>
<text text-anchor="middle" x="493" y="-167.1" font-family="Bitstream Vera Sans" font-size="8.00">+ poi:iata : xsd:string [0..1]</text>
<polyline fill="none" stroke="black" points="316,-160.5 670,-160.5 "/>
<text text-anchor="start" x="324" y="-150.1" font-family="Bitstream Vera Sans" font-size="8.00">constraints</text>
<text text-anchor="start" x="324" y="-132.1" font-family="Bitstream Vera Sans" font-size="8.00">poi:category = &#39;aeroway&#39;</text>
<text text-anchor="start" x="324" y="-123.1" font-family="Bitstream Vera Sans" font-size="8.00">poi:categoryOSM = &#39;aeroway.aerodrome&#39;</text>
<text text-anchor="start" x="324" y="-114.1" font-family="Bitstream Vera Sans" font-size="8.00">poi:categoryWAZE = http://www.openvoc.eu/waze_classification#Transportation</text>
</g>
<!-- Waze&#45;&gt;Airport -->
<!-- Airport&#45;&gt;SPOI -->
<g id="edge2" class="edge"><title>Airport&#45;&gt;SPOI</title>
<path fill="none" stroke="black" d="M347.135,-194.532C336.212,-200.018 325.688,-206.153 316,-213 310.378,-216.974 304.859,-221.215 299.453,-225.675"/>
<polygon fill="none" stroke="black" points="296.953,-223.207 291.614,-232.358 301.494,-228.533 296.953,-223.207"/>
</g>
<!-- Food -->
<g id="node4" class="node"><title>Food</title>
<polygon fill="none" stroke="black" points="313.5,-0.5 313.5,-69.5 672.5,-69.5 672.5,-0.5 313.5,-0.5"/>
<text text-anchor="middle" x="493" y="-59.1" font-family="Bitstream Vera Sans" font-size="8.00">SPOI:Food</text>
<polyline fill="none" stroke="black" points="313.5,-52.5 672.5,-52.5 "/>
<text text-anchor="middle" x="493" y="-42.1" font-family="Bitstream Vera Sans" font-size="8.00">+ poi:cuisine : xsd:string [0..1]</text>
<polyline fill="none" stroke="black" points="313.5,-35.5 672.5,-35.5 "/>
<text text-anchor="start" x="321.5" y="-25.1" font-family="Bitstream Vera Sans" font-size="8.00">constraints</text>
<text text-anchor="start" x="321.5" y="-7.1" font-family="Bitstream Vera Sans" font-size="8.00">poi:categoryWAZE = http://www.openvoc.eu/waze_classification#Food_and_drink</text>
</g>
<!-- Airport&#45;&gt;Food -->
<!-- Food&#45;&gt;SPOI -->
<g id="edge3" class="edge"><title>Food&#45;&gt;SPOI</title>
<path fill="none" stroke="black" d="M636.992,-69.6206C653.483,-79.1366 668.218,-91.3431 679,-107 701.183,-139.212 704.68,-165.501 679,-195 639.814,-240.014 468.645,-210.429 413,-232 388.706,-241.418 364.461,-253.641 341.176,-267.211"/>
<polygon fill="none" stroke="black" points="339.116,-264.363 332.3,-272.475 342.687,-270.384 339.116,-264.363"/>
</g>
</g>
</svg>
